<?xml version="1.0" encoding="utf-8"?>
<!-- Generator: Adobe Illustrator 19.2.1, SVG Export Plug-In . SVG Version: 6.00 Build 0)  -->
<!DOCTYPE svg PUBLIC "-//W3C//DTD SVG 1.1//EN" "http://www.w3.org/Graphics/SVG/1.1/DTD/svg11.dtd">
<svg version="1.1" id="Layer_1" xmlns="http://www.w3.org/2000/svg" xmlns:xlink="http://www.w3.org/1999/xlink" x="0px" y="0px"
	 viewBox="0 0 279.2 432.1" enable-background="new 0 0 279.2 432.1" xml:space="preserve">
<g id="Layer_1_1_">
</g>
<path fill="#FFFFFF" d="M32.9,389.5H29v-21.4l0.5-9h-0.1l-11.2,30.3h-3.5L3.6,359.2H3.5l0.5,9v21.4H0.1v-34h6.3l7.5,20.6l2.6,8.5
	h0.1l2.6-8.4l7.4-20.7h6.3V389.5z"/>
<path fill="#FFFFFF" d="M79,385.7v3.9H54.4v-34h23.8v3.9H58.5v11H78v3.9H58.5v11.4L79,385.7L79,385.7z"/>
<path fill="#FFFFFF" d="M127.5,359.4h-11.8v30.1h-4.1v-30.1H99.7v-3.9h27.8V359.4z"/>
<path fill="#FFFFFF" d="M174.8,355.6v34h-4.1v-15.3h-18.4v15.3h-4.1v-34h4.1v14.8h18.4v-14.8H174.8z"/>
<path fill="#FFFFFF" d="M221.3,357.2c2.4,1.4,4.2,3.4,5.5,6.1s1.9,5.7,1.9,9.3s-0.6,6.7-1.9,9.3s-3.1,4.6-5.5,6.1
	c-2.4,1.4-5.1,2.1-8.3,2.1s-6-0.7-8.3-2.1c-2.4-1.4-4.2-3.4-5.5-6.1c-1.3-2.6-1.9-5.7-1.9-9.3s0.6-6.7,1.9-9.3
	c1.3-2.6,3.1-4.6,5.5-6.1c2.4-1.4,5.1-2.1,8.3-2.1C216.1,355,218.9,355.8,221.3,357.2z M204.6,362.5c-2,2.4-3.1,5.8-3.1,10
	c0,4.3,1,7.6,3.1,10c2,2.4,4.8,3.6,8.4,3.6s6.3-1.2,8.4-3.6c2-2.4,3.1-5.8,3.1-10c0-4.3-1-7.6-3.1-10c-2-2.4-4.8-3.6-8.4-3.6
	S206.6,360.1,204.6,362.5z"/>
<path fill="#FFFFFF" d="M274.7,360c3,3,4.5,7.1,4.5,12.6c0,5.4-1.5,9.6-4.5,12.6s-7.2,4.4-12.6,4.4h-11v-34h11
	C267.5,355.6,271.6,357,274.7,360z M271.6,382.2c2.2-2.3,3.3-5.5,3.3-9.7s-1.1-7.3-3.3-9.7c-2.2-2.3-5.2-3.5-9.1-3.5h-7.3v26.2h7.3
	C266.4,385.7,269.4,384.5,271.6,382.2z"/>
<path fill="#6D6F71" d="M2.8,419.8v4.1H9v2H2.8v6.1H0.5v-14.1h10.2v2H2.8V419.8z"/>
<path fill="#6D6F71" d="M29.1,426.5c0,1.8-0.5,3.2-1.5,4.2c-1,0.9-2.4,1.4-4.3,1.4s-3.3-0.5-4.3-1.4s-1.5-2.3-1.5-4.2v-8.7h2.3v8.4
	c0,1.3,0.3,2.3,0.8,3s1.4,0.9,2.6,0.9s2.1-0.3,2.6-0.9s0.8-1.6,0.8-3v-8.4h2.3v8.7H29.1z"/>
<path fill="#6D6F71" d="M42.6,426.3h-3v5.6h-2.3v-14.1H43c1.5,0,2.7,0.4,3.6,1.1s1.3,1.8,1.3,3.1c0,1-0.3,1.9-0.8,2.5
	c-0.5,0.7-1.3,1.2-2.2,1.4l3.8,5.9h-2.6L42.6,426.3z M39.6,424.4h3.3c0.9,0,1.6-0.2,2.1-0.6s0.7-1,0.7-1.7c0-0.8-0.2-1.4-0.7-1.7
	c-0.5-0.4-1.1-0.6-2.1-0.6h-3.3V424.4z"/>
<path fill="#6D6F71" d="M67.5,431.9h-2.7l-5.4-8.9l-1.4-2.6l0,0l0.1,2.4v9.1H56v-14.1h2.7l5.4,8.8l1.4,2.6l0,0l-0.1-2.4v-9.1h2.1
	V431.9z"/>
<path fill="#6D6F71" d="M78.2,431.9h-2.3v-14.1h2.3V431.9z"/>
<path fill="#6D6F71" d="M97.1,419.8h-4.8v12.1H90v-12.1h-4.8v-2h11.9V419.8z"/>
<path fill="#6D6F71" d="M115.4,426.5c0,1.8-0.5,3.2-1.5,4.2c-1,0.9-2.4,1.4-4.3,1.4s-3.3-0.5-4.3-1.4s-1.5-2.3-1.5-4.2v-8.7h2.3v8.4
	c0,1.3,0.3,2.3,0.8,3s1.4,0.9,2.6,0.9s2.1-0.3,2.6-0.9s0.8-1.6,0.8-3v-8.4h2.3v8.7H115.4z"/>
<path fill="#6D6F71" d="M129,426.3h-3v5.6h-2.3v-14.1h5.7c1.5,0,2.7,0.4,3.6,1.1s1.3,1.8,1.3,3.1c0,1-0.3,1.9-0.8,2.5
	c-0.5,0.7-1.3,1.2-2.2,1.4l3.8,5.9h-2.6L129,426.3z M125.9,424.4h3.3c0.9,0,1.6-0.2,2.1-0.6s0.7-1,0.7-1.7c0-0.8-0.2-1.4-0.7-1.7
	c-0.5-0.4-1.1-0.6-2.1-0.6h-3.3C125.9,419.8,125.9,424.4,125.9,424.4z"/>
<path fill="#6D6F71" d="M152.8,430v2h-10.5v-14.1h10.2v2h-7.9v4.1h6.2v1.9h-6.2v4.2h8.2V430z"/>
<path fill="#6D6F71" d="M185.7,431.9h-2.1v-8.1l0.1-3.9l0,0l-4.3,12h-1.9l-4.3-12l0,0l0.2,3.9v8.1h-2.1v-14.1h3.4l2.8,8.1l1,3.3l0,0
	l1-3.3l2.8-8.1h3.3v14.1H185.7z"/>
<path fill="#6D6F71" d="M202.1,428.2h-5.9l-1.3,3.7h-2.3l5.3-14.1h2.7l5.3,14.1h-2.4L202.1,428.2z M201.4,426.4l-1.6-4.5l-0.6-2
	h-0.1l-0.6,2l-1.7,4.6h4.6V426.4z"/>
<path fill="#6D6F71" d="M217.1,425.1l-2.3,2.5v4.3h-2.3v-14.1h2.3v7l6.5-7h2.8l-5.3,5.8l5.5,8.3h-2.7L217.1,425.1z"/>
<path fill="#6D6F71" d="M241.5,430v2H231v-14.1h10.2v2h-7.9v4.1h6.2v1.9h-6.2v4.2h8.2V430z"/>
<path fill="#6D6F71" d="M254.2,426.3h-3v5.6h-2.3v-14.1h5.7c1.5,0,2.7,0.4,3.6,1.1s1.3,1.8,1.3,3.1c0,1-0.3,1.9-0.8,2.5
	c-0.5,0.7-1.3,1.2-2.2,1.4l3.8,5.9h-2.6L254.2,426.3z M251.1,424.4h3.3c0.9,0,1.6-0.2,2.1-0.6s0.7-1,0.7-1.7c0-0.8-0.2-1.4-0.7-1.7
	c-0.5-0.4-1.1-0.6-2.1-0.6h-3.3L251.1,424.4L251.1,424.4z"/>
<path fill="#6D6F71" d="M275.6,418.3c0.9,0.5,1.7,1.2,2.3,2.2l-1.7,1.6c-0.4-0.9-0.9-1.5-1.5-1.9s-1.4-0.6-2.4-0.6s-1.7,0.2-2.3,0.6
	c-0.5,0.4-0.8,0.9-0.8,1.5s0.3,1,0.8,1.4c0.5,0.3,1.5,0.6,2.8,0.9c1.3,0.2,2.3,0.5,3,0.9c0.7,0.3,1.3,0.8,1.6,1.3
	c0.3,0.5,0.5,1.2,0.5,1.9c0,0.8-0.2,1.5-0.7,2.2c-0.5,0.6-1.1,1.1-2,1.4s-1.8,0.5-2.9,0.5c-2.9,0-4.9-1-6.1-2.9l1.6-1.6
	c0.5,0.9,1,1.5,1.8,1.9c0.7,0.4,1.6,0.6,2.7,0.6c1,0,1.8-0.2,2.4-0.5s0.9-0.8,0.9-1.5c0-0.5-0.3-0.9-0.8-1.2s-1.4-0.6-2.7-0.8
	c-1.3-0.2-2.3-0.5-3.1-0.9s-1.3-0.8-1.7-1.3c-0.3-0.5-0.5-1.2-0.5-1.9c0-0.8,0.2-1.5,0.7-2.2c0.4-0.7,1.1-1.2,1.9-1.6
	s1.8-0.6,2.9-0.6C273.6,417.6,274.7,417.9,275.6,418.3z"/>
<path fill="#333333" d="M138.9,0L0,80.2v160.4l138.9,80.2l138.9-80.2V80.2L138.9,0z M270.2,81.6l-131.4,75.8L7.5,81.6L138.9,5.8
	L270.2,81.6z M5,86l131.4,75.8v151.7L5,237.6V86z M141.4,313.5V161.8L272.7,86v151.7L141.4,313.5z"/>
<polygon fill="#FFFFFF" points="0,240.5 0,80.2 2.5,78.7 138.9,157.5 270.2,81.6 275.2,78.7 277.8,80.2 277.8,240.5 272.7,237.6 
	272.7,86 138.9,163.3 5,86 5,237.6 "/>
</svg>
